<?xml version="1.0" standalone="no"?>
<!DOCTYPE svg PUBLIC "-//W3C//DTD SVG 20010904//EN"
 "http://www.w3.org/TR/2001/REC-SVG-20010904/DTD/svg10.dtd">
<svg version="1.0" xmlns="http://www.w3.org/2000/svg"
 width="260.000000pt" height="260.000000pt" viewBox="0 0 260.000000 260.000000"
 preserveAspectRatio="xMidYMid meet">
<metadata>
Created by potrace 1.14, written by Peter Selinger 2001-2017
</metadata>
<g transform="translate(0.000000,260.000000) scale(0.100000,-0.100000)"
fill="#000000" stroke="none">
<path d="M0 1300 l0 -1300 1300 0 1300 0 0 1300 0 1300 -1300 0 -1300 0 0
-1300z m1720 570 l0 -90 -145 0 -145 0 0 -395 0 -395 -105 0 -105 0 0 395 0
395 -145 0 -145 0 0 90 0 90 395 0 395 0 0 -90z m-960 -128 l0 -87 -177 -74
c-98 -41 -198 -83 -222 -94 l-43 -19 218 -93 219 -93 3 -91 3 -90 -93 38
c-230 97 -501 212 -519 221 -17 10 -19 22 -19 109 l0 98 208 88 c114 49 252
108 307 131 55 24 103 43 108 44 4 0 7 -39 7 -88z m1405 -41 l300 -128 3 -105
c2 -79 -1 -107 -10 -111 -7 -3 -147 -62 -311 -131 -164 -69 -300 -126 -303
-126 -2 0 -4 40 -4 88 l0 88 227 96 c172 74 223 99 208 104 -11 5 -112 47
-225 95 l-205 86 -3 87 c-2 65 0 86 10 86 7 0 148 -58 313 -129z m-1405 -1061
l0 -100 -110 0 -110 0 0 100 0 100 110 0 110 0 0 -100z m690 0 l0 -100 -110 0
-110 0 0 100 0 100 110 0 110 0 0 -100z m610 0 l0 -100 -110 0 -110 0 0 100 0
100 110 0 110 0 0 -100z"/>
</g>
</svg>
